<svg width="512" height="512" viewBox="0 0 512 512" xmlns="http://www.w3.org/2000/svg">
  <defs>
    <linearGradient id="g" x1="0%" y1="0%" x2="100%" y2="100%">
      <stop offset="0%" stop-color="#25D366"/>
      <stop offset="100%" stop-color="#075E54"/>
    </linearGradient>
    <filter id="shadow" x="-20%" y="-20%" width="140%" height="140%">
      <feDropShadow dx="0" dy="12" stdDeviation="20" flood-color="#000" flood-opacity="0.25"/>
    </filter>
  </defs>
  <rect width="512" height="512" rx="112" fill="url(#g)"/>
  <!-- chat bubble -->
  <g filter="url(#shadow)" transform="translate(256 256)">
    <path d="M -90 -78 C -90 -90 -80 -100 -66 -100 L 66 -100 C 80 -100 90 -90 90 -78 L 90 42 C 90 56 80 66 66 66 L 20 66 L -18 98 L -12 66 L -66 66 C -80 66 -90 56 -90 42 Z" fill="white" fill-opacity="0.96"/>
    <!-- lightning bolt inside -->
    <path d="M 12 -55 L -12 -10 L 4 -10 L -8 28 L 24 -16 L 6 -16 L 22 -55 Z" fill="#25D366" stroke="#075E54" stroke-width="1" stroke-linejoin="round"/>
    <!-- double check -->
    <g transform="translate(0 48)" opacity="0.0"><circle cx="0" cy="0" r="2"/></g>
  </g>
  <text x="256" y="460" font-family="Inter, Segoe UI, sans-serif" font-weight="800" font-size="28" fill="white" text-anchor="middle" letter-spacing="1.5" opacity="0.95">ALEXA V3</text>
</svg>
