<svg width="512" height="512" viewBox="0 0 512 512" xmlns="http://www.w3.org/2000/svg">
  <defs>
    <linearGradient id="g" x1="0%" y1="0%" x2="100%" y2="100%">
      <stop offset="0%" stop-color="#E0F2FE"/>
      <stop offset="45%" stop-color="#38BDF8"/>
      <stop offset="100%" stop-color="#1E3A8A"/>
    </linearGradient>
    <radialGradient id="snow" cx="50%" cy="35%" r="70%">
      <stop offset="0%" stop-color="white" stop-opacity="0.9"/>
      <stop offset="100%" stop-color="white" stop-opacity="0"/>
    </radialGradient>
  </defs>
  <rect width="512" height="512" rx="112" fill="url(#g)"/>
  <circle cx="256" cy="200" r="170" fill="url(#snow)"/>
  <!-- mountain -->
  <g transform="translate(256 240)">
    <path d="M -110 70 L -30 -40 L 0 -10 L 25 -55 L 110 70 Z" fill="white" opacity="0.95" stroke="#1E3A8A" stroke-width="3" stroke-linejoin="round"/>
    <path d="M -30 -40 L -18 -28 L -32 -22 Z M 25 -55 L 32 -38 L 18 -32 Z" fill="#38BDF8"/>
    <!-- snowflake center -->
    <g transform="translate(0 10)">
      <g stroke="white" stroke-width="5" stroke-linecap="round" opacity="0.95">
        <line x1="0" y1="-42" x2="0" y2="42"/>
        <line x1="-36.3" y1="-21" x2="36.3" y2="21"/>
        <line x1="-36.3" y1="21" x2="36.3" y2="-21"/>
      </g>
      <g stroke="white" stroke-width="4" stroke-linecap="round">
        <g transform="translate(0 -42)"><line x1="-10" y1="-8" x2="0" y2="0"/><line x1="10" y1="-8" x2="0" y2="0"/></g>
        <g transform="translate(0 42)"><line x1="-10" y1="8" x2="0" y2="0"/><line x1="10" y1="8" x2="0" y2="0"/></g>
        <g transform="translate(-36.3 -21) rotate(-30)"><line x1="-10" y1="-8" x2="0" y2="0"/><line x1="10" y1="-8" x2="0" y2="0"/></g>
        <g transform="translate(36.3 21) rotate(-30)"><line x1="-10" y1="8" x2="0" y2="0"/><line x1="10" y1="8" x2="0" y2="0"/></g>
        <g transform="translate(-36.3 21) rotate(30)"><line x1="-10" y1="-8" x2="0" y2="0"/><line x1="-10" y1="8" x2="0" y2="0"/></g>
        <g transform="translate(36.3 -21) rotate(30)"><line x1="10" y1="-8" x2="0" y2="0"/><line x1="10" y1="8" x2="0" y2="0"/></g>
      </g>
      <circle r="12" fill="#1E3A8A"/>
    </g>
  </g>
  <text x="256" y="460" font-family="Inter, sans-serif" font-weight="900" font-size="28" fill="white" text-anchor="middle" letter-spacing="3">SNOWSTORM</text>
</svg>
