<svg width="512" height="512" viewBox="0 0 512 512" xmlns="http://www.w3.org/2000/svg">
  <defs>
    <linearGradient id="g" x1="0%" y1="0%" x2="100%" y2="100%">
      <stop offset="0%" stop-color="#22C55E"/>
      <stop offset="100%" stop-color="#14532D"/>
    </linearGradient>
  </defs>
  <rect width="512" height="512" rx="112" fill="url(#g)"/>
  <g transform="translate(256 225)">
    <!-- grid -->
    <g transform="translate(-78 -78)">
      <rect x="0" y="0" width="48" height="48" rx="8" fill="white" opacity="0.3" stroke="white" stroke-width="2"/>
      <rect x="54" y="0" width="48" height="48" rx="8" fill="white" opacity="0.3" stroke="white" stroke-width="2"/>
      <rect x="108" y="0" width="48" height="48" rx="8" fill="#FACC15" stroke="white" stroke-width="2.5"/>
      <rect x="0" y="54" width="48" height="48" rx="8" fill="white" stroke="white" stroke-width="2"/>
      <rect x="54" y="54" width="48" height="48" rx="8" fill="#22C55E" stroke="white" stroke-width="2.5"/>
      <rect x="108" y="54" width="48" height="48" rx="8" fill="white" stroke="white" stroke-width="2"/>
      <rect x="0" y="108" width="48" height="48" rx="8" fill="white" opacity="0.3" stroke="white" stroke-width="2"/>
      <rect x="54" y="108" width="48" height="48" rx="8" fill="white" opacity="0.3" stroke="white" stroke-width="2"/>
      <rect x="108" y="108" width="48" height="48" rx="8" fill="white" opacity="0.3" stroke="white" stroke-width="2"/>
      <!-- letters -->
      <text x="24" y="34" font-family="Inter" font-weight="800" font-size="26" fill="white" text-anchor="middle">Q</text>
      <text x="78" y="34" font-family="Inter" font-weight="800" font-size="26" fill="white" text-anchor="middle">W</text>
      <text x="132" y="34" font-family="Inter" font-weight="800" font-size="26" fill="#14532D" text-anchor="middle">E</text>
      <text x="24" y="88" font-family="Inter" font-weight="800" font-size="26" fill="#14532D" text-anchor="middle">R</text>
      <text x="78" y="88" font-family="Inter" font-weight="800" font-size="26" fill="white" text-anchor="middle">I</text>
      <!-- checkmark -->
      <g transform="translate(78 78)">
        <circle r="16" fill="white"/>
        <path d="M -6 0 L -1 5 L 6 -5" stroke="#22C55E" stroke-width="3" fill="none" stroke-linecap="round" stroke-linejoin="round"/>
      </g>
    </g>
  </g>
  <text x="256" y="460" font-family="Inter, sans-serif" font-weight="800" font-size="22" fill="white" text-anchor="middle" letter-spacing="1.5">WORDLE SOLVER</text>
</svg>
